<svg xmlns="http://www.w3.org/2000/svg" xmlns:xlink="http://www.w3.org/1999/xlink" width="16px" height="16px" viewBox="0 0 16 16" version="1.1">
    <!-- Generator: Sketch 49.1 (51147) - http://www.bohemiancoding.com/sketch -->
    <title>Group 28</title>
    <desc>Created with Sketch.</desc>
    <defs/>
    <g id="定稿" stroke="none" stroke-width="1" fill="none" fill-rule="evenodd">
        <g id="收银台" transform="translate(-1496.000000, -260.000000)">
            <g id="Group-28" transform="translate(1496.000000, 260.000000)">
                <g id="Group-26" fill-rule="nonzero">
                    <g id="Group-10" fill="#D8B879">
                        <path d="M1,14 L1,1 L12,1 L12,7 L13,7 L13,0.666666667 C13,0.298476833 12.7172325,0 12.3684211,0 L0.631578947,0 C0.282767526,0 0,0.298476833 0,0.666666667 L0,14.3333333 C0,14.7015232 0.282767526,15 0.631578947,15 L8,15 L8,14 L1,14 Z" id="Rectangle-9"/>
                    </g>
                    <path d="M3.5,5 C3.22385763,5 3,4.77614237 3,4.5 C3,4.22385763 3.22385763,4 3.5,4 L9.5,4 C9.77614237,4 10,4.22385763 10,4.5 C10,4.77614237 9.77614237,5 9.5,5 L3.5,5 Z" id="Line-3-Copy-2" fill="#D9B879"/>
                    <path d="M3.5,8 C3.22385763,8 3,7.77614237 3,7.5 C3,7.22385763 3.22385763,7 3.5,7 L6.5,7 C6.77614237,7 7,7.22385763 7,7.5 C7,7.77614237 6.77614237,8 6.5,8 L3.5,8 Z" id="Line-3-Copy-3" fill="#D9B879"/>
                </g>
                <g id="Group-9" transform="translate(7.000000, 8.000000)">
                    <g id="Group-5-Copy">
                        <path d="M2.79040527,1.88500977 C3.24348254,1.08072917 4.02579048,0.678588867 5.1373291,0.678588867 C6.24886772,0.678588867 7.12578495,1.31458537 7.76808077,2.58657837" id="Path-4" stroke="#D8B879" stroke-linecap="round"/>
                        <path d="M2.59633861,6.24654388 C3.25275928,5.32241567 4.07883452,4.86035156 5.07456432,4.86035156 C6.07029412,4.86035156 6.87311675,5.42879995 7.48303223,6.56569672" id="Path-4-Copy" stroke="#D8B879" stroke-linecap="round" transform="translate(5.039685, 5.713024) rotate(-180.000000) translate(-5.039685, -5.713024) "/>
                        <path d="M3.92847729,3.61082643 L3.84350733,5.69221354 C3.83911594,5.79978319 3.75036199,5.88457527 3.64270401,5.88405324 L1.51000102,5.87371194 C1.39954537,5.87317635 1.31043756,5.78320017 1.31097315,5.67274452 C1.31124022,5.61766639 1.33420965,5.56513635 1.37446426,5.52754328 L3.5921372,3.45649747 C3.67286522,3.38110699 3.79942427,3.38543392 3.87481475,3.46616194 C3.91133204,3.5052646 3.93065965,3.55736834 3.92847729,3.61082643 Z" id="Triangle-Copy" fill="#D8B879" transform="translate(2.619807, 4.643362) rotate(-162.000000) translate(-2.619807, -4.643362) "/>
                    </g>
                    <path d="M8.78879074,1.23100238 L8.8775692,3.21522158 C8.88250636,3.32556813 8.79705515,3.41902404 8.6867086,3.4239612 C8.6830273,3.42412591 8.67934215,3.42418885 8.67565738,3.42414994 L6.68550311,3.40313564 C6.57505232,3.40196937 6.48645971,3.31148587 6.48762597,3.20103508 C6.48816662,3.1498327 6.50832554,3.10078796 6.54394926,3.06400582 L8.44532507,1.10080093 C8.5221705,1.02145663 8.64878729,1.0194309 8.72813159,1.09627633 C8.76480656,1.13179626 8.78650866,1.17999737 8.78879074,1.23100238 Z" id="Triangle-Copy-2" fill="#D8B879" transform="translate(7.682694, 2.232051) rotate(15.000000) translate(-7.682694, -2.232051) "/>
                </g>
            </g>
        </g>
    </g>
</svg>