<svg xmlns="http://www.w3.org/2000/svg" xmlns:xlink="http://www.w3.org/1999/xlink" width="24px" height="23px" viewBox="0 0 24 23" version="1.1">
    <!-- Generator: Sketch 49.1 (51147) - http://www.bohemiancoding.com/sketch -->
    <title>青灯有味VIP-0</title>
    <desc>Created with Sketch.</desc>
    <defs/>
    <g id="定稿" stroke="none" stroke-width="1" fill="none" fill-rule="evenodd">
        <g id="青灯有味VIP-0" fill="#FFFFFF" fill-rule="nonzero">
            <g id="Group">
                <path d="M23.7607973,5.43787375 L18.5700997,0.24717608 C18.4265781,0.103654485 18.2352159,0.0239202658 18.0358804,0.0239202658 L6.00398671,0.0239202658 C5.80465116,0.0239202658 5.61328904,0.103654485 5.46976744,0.24717608 L0.279069767,5.43787375 C0.135548173,5.58139535 0.0558139535,5.77275748 0.0558139535,5.97209302 L0.0558139535,8.67508306 C0.0558139535,8.85049834 0.119601329,9.02591362 0.239202658,9.16146179 L11.4418605,22.3495017 C11.7448505,22.7083056 12.2950166,22.7083056 12.5900332,22.3495017 L23.792691,9.16146179 C23.9122924,9.02591362 23.9760797,8.85049834 23.9760797,8.67508306 L23.9760797,5.97209302 C23.9760797,5.77275748 23.8963455,5.58139535 23.7607973,5.43787375 Z M21.3368771,7.70232558 C21.3368771,7.87774086 21.2730897,8.05315615 21.1534884,8.18870432 L12.5900332,18.2671096 C12.2870432,18.6259136 11.7368771,18.6259136 11.4418605,18.2671096 L2.87840532,8.18870432 C2.75880399,8.05315615 2.69501661,7.87774086 2.69501661,7.70232558 L2.69501661,7.06445183 C2.69501661,6.86511628 2.77475083,6.67375415 2.91827243,6.53023256 L6.56212625,2.88637874 C6.70564784,2.74285714 6.89700997,2.66312292 7.09634551,2.66312292 L16.9355482,2.66312292 C17.1348837,2.66312292 17.3262458,2.74285714 17.4697674,2.88637874 L21.1136213,6.53023256 C21.2571429,6.67375415 21.3368771,6.86511628 21.3368771,7.06445183 L21.3368771,7.70232558 Z" id="Shape"/>
                <path d="M18.4744186,6.13156146 L15.8750831,6.13156146 C15.6757475,6.13156146 15.5162791,6.2910299 15.5162791,6.49036545 C15.5162791,6.57807309 15.4843854,6.65780731 15.4285714,6.72159468 L12.5900332,10.054485 C12.2870432,10.413289 11.7368771,10.413289 11.4418605,10.054485 L8.61129568,6.72159468 C8.55548173,6.65780731 8.52358804,6.57009967 8.52358804,6.49036545 C8.52358804,6.2910299 8.3641196,6.13156146 8.16478405,6.13156146 L5.5654485,6.13156146 C5.36611296,6.13156146 5.20664452,6.2910299 5.20664452,6.49036545 L5.20664452,7.710299 C5.20664452,7.79800664 5.23853821,7.87774086 5.29435216,7.94152824 L11.4498339,15.1893688 C11.7528239,15.5481728 12.30299,15.5481728 12.5980066,15.1893688 L18.7534884,7.94152824 C18.8093023,7.87774086 18.841196,7.79003322 18.841196,7.710299 L18.841196,6.49036545 C18.841196,6.2910299 18.6737542,6.13156146 18.4744186,6.13156146 Z" id="Shape"/>
            </g>
        </g>
    </g>
</svg>